<?xml version="1.0" encoding="utf-8"?>
<!-- Generator: Adobe Illustrator 27.0.0, SVG Export Plug-In . SVG Version: 6.00 Build 0)  -->
<svg version="1.1" id="Layer_1" xmlns="http://www.w3.org/2000/svg" xmlns:xlink="http://www.w3.org/1999/xlink" x="0px" y="0px"
	 viewBox="0 0 512 512" style="enable-background:new 0 0 512 512;" xml:space="preserve">
<style type="text/css">
	.st0{fill-rule:evenodd;clip-rule:evenodd;fill:#D2AB67;}
	.st1{fill-rule:evenodd;clip-rule:evenodd;fill:#231F20;}
	.st2{fill-rule:evenodd;clip-rule:evenodd;fill:#EC7C23;}
	.st3{fill-rule:evenodd;clip-rule:evenodd;fill:#2C2A29;}
	.st4{fill-rule:evenodd;clip-rule:evenodd;fill:#EE7F1A;}
	.st5{fill-rule:evenodd;clip-rule:evenodd;fill:#8B5421;}
	.st6{fill-rule:evenodd;clip-rule:evenodd;fill:#985920;}
	.st7{fill:#231F20;}
</style>
<g id="XMLID_1_">
	<path id="XMLID_48_" class="st0" d="M66.38,314.9v-0.14c0,0-0.56,0.28,1.4-2.1c0.7-0.84,1.26-1.54,1.82-2.24l2.66-3.37
		c0.56-0.7,0.56-0.84,1.12-1.12c0.56,0.84,2.24,9.82,2.38,11.22c-2.24-0.28-0.84-3.09-1.96-3.79l-4.35-1.12
		C68.91,313.08,67.64,315.32,66.38,314.9z M83.21,312.23c0.14,0.28,2.94,2.24,0.84,4.49c-1.4,1.54-3.65,0.84-5.75,0.56l1.26-10.24
		c2.24,0.14,5.61,0.42,4.91,3.51C84.33,311.53,83.77,311.67,83.21,312.23z M97.65,307.33c0.98,0,0.7-0.56,0.98,2.1
		c0.14,1.82,0.84,7.43,0.42,8.13h-0.7c-0.42-0.84-0.56-6.03-0.7-7.71V307.33z M94.99,320.93c-1.54,0-1.54-1.26-1.82-2.66
		c-0.7-3.23-0.7-6.87,0.28-10.1c0.28-0.98,0.28-1.12,1.4-1.12c-0.28,2.52-1.12,3.65-1.12,6.87
		C93.73,317.14,94.43,318.26,94.99,320.93z M107.61,305.5c0.98,0.14,0.56-0.7,1.12,2.1c0.14,0.98,0.42,1.82,0.56,2.66
		c0.28,1.54,0.84,3.79,0.98,5.33c-1.4-0.56-6.59-5.19-8.41-6.17l1.4,7.57l-0.84,0.14c-0.56-0.56-0.98-3.93-1.26-4.91
		c-0.28-1.54-0.84-3.79-0.98-5.33c0.98,0.42,3.23,2.24,4.21,3.09c0.84,0.7,3.23,2.66,4.21,3.09c-0.14-1.12-0.42-2.52-0.7-3.79
		l-0.56-2.94C107.33,305.36,107.61,305.5,107.61,305.5z M110.28,304.94c0.98-0.7,4.35-1.68,5.75-1.54c2.1,0.28,3.51,1.68,4.07,3.51
		c1.82,5.05-2.52,6.73-6.45,7.71C112.94,313.5,110.84,306.77,110.28,304.94z M66.1,303.82c1.12,0.28,0.84,0.42,0,2.8
		c-0.56,1.68-1.54,6.03-2.8,6.73s-2.8-0.14-3.51-0.84c-0.42-0.42-0.7-1.12,0-1.26c0.7-0.14,2.52,3.51,3.79-0.28
		C64.14,309.29,65.26,304.66,66.1,303.82z M49.97,308.17c-0.84-0.56-0.98,0,0.14-2.24c0.84-1.54,3.23-6.45,3.93-7.29
		c0.98,1.26,1.82,7.85,2.66,10.1c0.7-0.98,3.09-6.45,3.79-6.73l0.56,0.28c0,0.7-4.07,8.41-4.63,9.26c-0.14-0.14-0.14-0.14-0.28-0.42
		l-2.66-9.4c-0.56,1.68-1.82,3.37-2.52,5.05C50.68,307.19,50.53,307.89,49.97,308.17z M120.65,300.88c0.7,0.28,2.1,3.93,2.52,4.91
		c1.54,3.37,2.52,4.35,1.12,4.77c-0.7-0.84-1.82-3.79-2.38-4.91c-0.42-0.84-0.7-1.54-1.12-2.52
		C120.23,302,119.53,301.3,120.65,300.88z M126.4,297.93c1.26,0.42,3.79,2.38,4.91,3.23c0.98,0.7,4.07,2.52,4.63,3.37
		c-1.68,0.98-1.68-0.7-4.07-1.54l-3.65,2.1l0.28,3.79l-0.98,0.42L126.4,297.93z M50.96,297.09l0.7,0.42
		c-0.14,0.7-2.38,3.93-2.94,4.77c-0.84,1.4-2.24,3.79-4.91,2.8c-1.82-0.7-3.09-2.94-1.82-5.05c0.42-0.56,3.65-5.89,4.07-5.89
		c1.82-0.42-0.98,3.23-1.26,3.51c-0.84,1.26-3.09,3.79-2.1,5.61c0.42,0.7,1.4,1.4,2.66,1.12C47.31,303.68,48.99,299.47,50.96,297.09
		z M131.73,294.14c2.1-1.82,7.15,6.03,8.41,9.4c0.42,1.26,0.42,1.4-0.42,1.82c-0.7-0.98-1.12-5.05-5.33-9.12
		C133.69,295.97,132.01,294.71,131.73,294.14z M39.74,288.53c0.42,0.14,5.05,3.09,3.65,5.75c-1.96,3.65-5.05-0.28-6.45-0.7
		c-0.98,0.98-1.54,1.96-2.52,2.94c-0.42,0.42-2.52,1.26,0.28-1.96L39.74,288.53z M20.95,279.98c-0.98-4.07,5.19-5.33,5.89-1.54
		C27.82,282.79,21.79,283.35,20.95,279.98z M150.94,279.56c-0.56-4.07,5.75-4.49,6.17-0.7
		C157.39,283.07,151.36,283.21,150.94,279.56z M166.09,256.98c1.54,2.1,3.51,2.66,3.09,4.49c-0.56-0.14-0.56-0.28-0.98-0.7
		l-2.8-2.94c-0.98-1.12-2.38-1.12-4.21-1.54c-0.98-0.28-1.12-0.14-0.98-0.98c1.26-0.56,3.79,1.12,5.47,0.7
		c1.68-0.42,3.65-1.26,5.47-1.54C170.58,256.7,167.91,255.58,166.09,256.98z M171.14,252.63h-0.7c-0.28-0.56,0-1.68,0.14-2.38
		l-7.43-1.26c-1.4-0.14-1.82,0.14-1.68-1.12c1.4-0.28,7.15,1.26,9.12,1.4c0.7-1.4-0.14-1.54,0.84-2.1c0.98,0.28,0.7-0.42,0.28,2.66
		C171.7,250.53,171.56,251.93,171.14,252.63z M16.46,245.34c0.98,0,0.56-0.7,0.98,2.1c0.14,0.98,0.28,1.82,0.42,2.8
		c-1.54,0.28-9.26,1.68-10.24,1.26v-0.7l9.12-1.4c0.14-0.7,0-1.26-0.14-1.96C16.18,246.6,16.04,245.9,16.46,245.34z M162.16,243.8
		v-0.84c1.26-0.14,3.93,0.14,5.33,0.28c0.84,0,1.68,0.14,2.52,0.14c3.09,0.14,2.1,0,2.38,0.7c-0.28,0.56,0.7,0.56-2.38,0.42
		L162.16,243.8z M5.94,239.59c-1.12-7.43,9.82-8.69,10.8-1.82C17.86,245.2,6.92,246.32,5.94,239.59z M156.55,239.73
		c-1.12,14.86-5.33,25.66-13.6,36.88c-1.12,1.4-2.66,3.51-3.79,4.63c-0.84,0.84-1.26,1.4-2.1,2.24
		c-13.46,13.46-32.11,20.9-51.75,19.77c-35.76-2.1-65.49-32.67-63.25-71.38c2.1-35.62,32.82-65.35,71.24-63.11
		c13.74,0.84,26.5,5.75,36.74,13.6c1.82,1.4,5.19,4.21,6.73,5.89c0.7,0.84,1.4,1.26,2.1,2.1c5.61,6.73,9.54,12.06,12.9,20.61
		C155.29,219.4,157.39,229.78,156.55,239.73z M171.14,240.85l-0.42-0.56c0.28-0.84,2.24-2.1,0.42-3.37
		c-2.8-0.98-3.65,5.75-7.57,3.79c-3.37-1.68-0.14-6.45,0.84-5.47c0.56,0.56,0.14,0.42-0.84,1.4c-1.26,1.26-0.28,3.79,1.68,3.09
		c1.12-0.42,2.24-2.24,2.94-3.09C171.7,233.14,175.34,239.03,171.14,240.85z M162.02,227.95v-0.7c0.84-0.56,8.55-0.98,10.1-0.98
		l0.14,0.14l0.14,0.14l0.28,1.26c0.14,1.68,0.42,3.65-1.12,4.49c-0.98,0.56-2.24,0.56-3.09-0.14c-1.12-0.84-0.7-1.54-1.26-2.66
		c-1.54,0.98-2.94,3.09-4.35,3.79c-0.98-1.96,3.79-3.65,4.21-5.75C165.67,227.81,162.72,228.37,162.02,227.95z M7.48,221.36
		c1.12,0.28,3.79,2.1,4.91,2.8c1.26,0.84,3.79,2.1,4.77,3.09l-0.14,0.14l-5.19,1.54c-1.68,0.42-3.79,1.12-5.47,1.4
		c0-1.54,0.42-1.12,3.79-1.96c1.4-0.28,3.65-0.56,4.49-1.4l-5.61-3.51C8.18,222.76,7.48,222.62,7.48,221.36z M166.93,219.26
		c0.14,1.26,1.12,3.93,0.7,4.77c-1.12,0.14-0.98-0.56-1.12-1.82c-0.14-0.98-0.42-1.82-0.56-2.66l-3.93,0.7l0.84,4.77l-0.84,0.14
		c-0.7-0.84-1.12-4.35-1.26-5.75l10.1-1.96l0.84,4.35c0.14,0.98,0.28,0.98-0.14,1.54c-0.7,0.14-0.56,0.7-0.98-1.82
		c-0.14-0.98-0.42-1.82-0.56-2.66L166.93,219.26z M9.45,217.58l2.94,0.7c0.56-1.12,0.7-2.66,0.98-3.79s0-0.84,0.98-0.7
		c0.56,0.7-0.7,3.79-0.84,4.77l3.79,0.98c0.56-1.12,0.7-4.07,1.54-4.63c1.12,0.28,0.84,0.14,0.14,2.66
		c-0.28,1.12-0.56,2.1-0.84,3.09l-9.96-2.52c0.14-0.98,0.42-2.1,0.7-2.94c0.28-0.84,0.28-2.24,0.98-2.66
		c0.84,0.28,0.84-0.28,0.28,2.1C9.87,215.75,9.59,216.59,9.45,217.58z M20.24,213.37l-7.57-2.8c-2.52-0.98-2.1-0.42-1.82-1.54
		l1.12,0.14c1.96,0.7,6.31,2.66,7.85,2.8l0.98-2.94c0.42-0.98-0.14-0.7,0.98-0.56C22.21,209.3,20.38,213.09,20.24,213.37z
		 M161.04,212.53l7.29,0.56c1.4,0.14,1.26-0.14,1.54,1.12l-11.22-0.84c0.14-0.84,0.7-0.84,1.82-1.96c0.84-0.84,5.89-5.47,6.59-5.75
		c0.42,1.26,0,1.4-2.66,3.51C163.85,209.86,161.32,212.11,161.04,212.53z M156.13,206.92c0.56-0.7,3.65-1.96,4.77-2.38
		c0.98-0.42,1.54-0.7,2.52-1.12c2.38-1.12,1.82-1.12,2.38-0.28c-0.28,0.42,0,0.14-0.42,0.42l-4.35,2.1
		C157.96,206.92,156.69,208.04,156.13,206.92z M16.46,196.68c0.98,0.7,2.38,3.65,3.23,4.77c0.56,0.84,2.66,1.4,3.79,1.96
		c0.7,0.42,0.98,0.28,0.56,1.26c-1.12,0-3.23-1.68-4.63-1.82c-1.26-0.14-4.63,0.42-6.17,0.56c0.42-1.68,1.4-0.98,5.33-1.54
		C17.3,199.2,15.2,198.22,16.46,196.68z M156.83,202.15l5.47-2.94c0.98-0.56,1.12-0.98,1.68-0.14c-0.14,0.84-0.7,0.84-1.96,1.54
		c-0.84,0.42-1.54,0.84-2.38,1.4c-1.4,0.84-3.23,1.96-4.49,2.52c-0.14-1.68,3.09-7.99,3.09-9.82c-0.84,0.56-6.03,3.65-6.73,3.65
		l-0.42-0.7c0.7-0.56,8.41-5.05,8.98-5.19L156.83,202.15z M153.47,183.22l0.56,0.7c-1.26,1.4-6.03,4.35-6.31,5.75
		c-0.28,1.12,0.42,2.24,1.12,2.8c1.12,0.7,2.1,0.28,2.94-0.42l4.49-3.65c1.12-0.98,2.1-0.28,0.7,0.84c-2.8,2.24-7.57,7.29-9.96,2.66
		c-1.68-3.09,1.68-4.77,4.35-7.01C151.93,184.48,152.91,183.64,153.47,183.22z M32.72,176.07c0.28-0.56,3.93-4.49,6.31-2.38
		c2.52,2.24-0.42,4.91-1.96,5.75c0.56,1.4,2.24,2.66,2.94,3.93l-0.56,0.56C38.61,183.5,33.29,177.05,32.72,176.07z M40.02,169.76
		c1.26-0.7,3.65-3.23,5.75-2.24c1.54,0.7,2.66,3.37-0.14,5.19c0.84,0.7,4.35,1.54,5.61,1.96c-1.82,1.82-5.75-1.82-6.87-0.84
		c-0.28,0.42-0.56-0.56,0,0.7c0.14,0.42,2.24,2.66,2.24,3.51l-0.56,0.42C45.35,178.03,40.3,170.6,40.02,169.76z M53.76,161.34
		c6.87-1.96,9.82,8.69,2.8,10.52C49.69,173.68,46.61,163.44,53.76,161.34z M128.37,175.08c0.28-0.84,5.05-8.55,5.47-8.69
		c2.52-1.12-2.94,6.17-3.93,8.27c0.42,0.42,1.26,0.84,1.68,1.26c0.7,0.42,1.54,0.7,1.26,1.4
		C132.01,177.89,130.33,175.93,128.37,175.08z M118.13,169.33c0.84-0.84,8.41-6.73,9.26-7.01l-0.42,11.36
		c-1.4-0.28-0.84-0.7-0.84-4.21l-3.93-1.96c-1.26,0.56-1.96,1.68-3.23,2.1L118.13,169.33z M101.16,154.33
		c3.23-0.7,5.89,1.54,6.45,4.07c0.7,3.23-1.4,6.03-4.07,6.59C96.39,166.53,94.01,156.01,101.16,154.33z M109.01,166.25
		c0-1.12,2.52-8.13,2.94-9.82c1.26,0.84,3.23,7.99,4.35,9.4c1.12-1.82,1.4-5.47,2.52-7.29l0.7,0.14c0.14,0.7-1.82,6.03-2.24,7.57
		c-0.14,0.42-0.28,0.84-0.42,1.26c-0.28,0.98-0.56,0.84-0.56,0.98c-0.98-1.96-3.09-8.13-4.07-9.26c-0.56,0.98-0.84,2.52-1.26,3.65
		c-0.42,1.26-0.7,2.52-1.26,3.51L109.01,166.25z M61.33,158.4c0.56-0.42,4.35-1.68,4.91-1.54l0.14,0.7l-3.79,1.26
		c0,0.98,0.56,2.38,0.98,3.09c0.7-0.14,1.4-0.28,2.1-0.56c0.28-0.14,0.7-0.28,0.98-0.28c0.14,0,0.28-0.14,0.42-0.14
		c0.42,0,0.14,0,0.42,0.14c0.42,1.26-0.84,0.98-3.65,1.96c0.14,0.84,0.56,1.82,0.84,2.66c0.84,2.66,0.98,2.1,0,2.38
		c-0.7-0.42-0.84-1.54-1.12-2.38L61.33,158.4z M93.03,163.87c-0.14-1.4,0.14-3.65,0.28-5.19c0-0.98,0.14-1.82,0.14-2.8
		c0.14-3.09,0-1.96,0.7-2.24c0.7,0.28,0.7-0.56,0.42,2.52l-0.56,7.85L93.03,163.87z M69.05,156.15c0.84-0.42,5.19-1.4,5.75-1.12
		c0.14,1.12-0.7,0.98-1.96,1.26c-0.84,0.14-1.68,0.42-2.52,0.56c0.14,1.12,0.28,2.38,0.7,3.09c1.4,0,2.94-0.56,3.65-0.7
		c0.98-0.14,0.42-0.28,0.98,0.14c0,0.98,0.56,0.56-2.1,1.12c-0.84,0.14-1.68,0.28-2.52,0.56l0.84,3.79c1.12,0,4.07-1.12,4.91-0.56
		c0,0.98,0.28,0.7-2.38,1.26c-1.12,0.28-2.1,0.56-3.23,0.56C70.73,165.13,69.19,157.41,69.05,156.15z M78.16,162.18
		c0.56,0.42,0.98,1.12,1.96,1.26c0.98,0.14,1.82-0.42,2.1-1.26c0.42-1.82-1.96-2.8-3.09-3.51c-1.26-0.84-2.8-2.52-1.12-4.21
		c1.4-1.4,3.79-0.7,4.35,0.7l-0.28,0.42c-0.98-0.14-0.28-0.14-1.12-0.56c-1.54-0.84-2.94,0.42-2.24,1.82
		c0.42,0.84,2.94,1.82,3.93,2.8c3.37,3.37-2.8,7.29-4.91,3.09L78.16,162.18z M87,153.35c2.66-1.12,4.77,2.66,2.66,1.82
		c-0.56-0.14-0.98-1.26-2.38-0.84c-0.84,0.28-0.98,1.4-0.42,2.24c0.84,1.26,2.8,1.82,3.65,3.37c0.98,1.82-0.42,3.79-1.96,4.07
		c-3.09,0.42-4.49-2.94-2.8-2.38c0.56,0.14,0.7,1.26,2.1,1.4c1.12,0.14,1.96-0.56,1.96-1.54c0.14-1.68-2.24-2.8-3.37-3.79
		C85.17,156.43,84.89,154.19,87,153.35z M176.61,242.96c4.35-50.06-34.78-91.15-80.21-94.24c-13.88-0.98-26.36,0.98-38.14,5.47
		c-7.57,2.94-14.86,6.87-21.18,11.64c-1.96,1.54-4.21,3.23-5.89,4.77c-7.43,6.73-13.46,13.88-19.21,24.54
		C0.05,217.15-1.21,243.8,7.62,267.08c4.07,10.94,9.26,18.65,16.55,27.07c5.75,6.73,14.86,14.16,24.54,19.21
		c22.44,11.64,47.82,13.32,71.8,4.35c13.32-4.91,23.14-12.2,32.67-21.88l5.05-5.89C168.47,276.9,175.06,261.05,176.61,242.96z"/>
	<path id="XMLID_55_" class="st1" d="M89.24,301.58c-2.8,0-13.88-0.84-16.83-2.24c-0.7-0.28-0.14,0-0.42-0.28l49.5-6.03
		C113.5,298.63,99.48,301.58,89.24,301.58z M52.5,290.08l25.52-14.44c8.55-4.91,16.97-9.54,25.66-14.58l44.74-25.38
		c1.12-0.7,5.61-3.51,6.59-3.51c0.56,16.69-3.51,29.31-11.92,41.51c-0.84,1.26-6.17,2.24-7.99,2.8l-67.87,17.95
		c-5.75,1.54-4.49,2.1-11.5-2.1c-0.56-0.42-0.98-0.56-1.54-0.98C53.06,290.64,52.92,290.78,52.5,290.08z M49.27,287.97
		c-1.12-0.7-4.77-3.79-5.33-4.77c0.42-0.7,1.82-2.38,2.38-3.23L64,257.4c9.96-12.62,20.19-25.94,30.15-38.42l30.15-38.56
		c2.1,0.98,6.31,4.35,7.99,5.89c5.89,5.33,8.55,8.27,12.9,15.29c1.12,1.82,4.21,7.29,4.77,9.4c-0.56,0.7-16.97,13.04-18.65,14.44
		l-31.55,24.12c-7.71,5.89-17.53,13.6-25.24,19.35c-2.1,1.54-4.07,3.09-6.17,4.77C65.54,275.63,50.11,287.69,49.27,287.97z
		 M32.3,268.34c-1.26-1.54-3.51-6.73-4.21-8.83c-6.59-17.39-5.75-37.86,3.23-54.13c3.79-6.87,5.05-8.27,9.54-13.6
		c0.56-0.56,1.12-1.12,1.68-1.68c0.14,1.82-0.84,7.43-1.12,9.68c-0.42,3.23-0.84,6.45-1.26,9.68c-0.84,6.59-1.68,13.18-2.52,19.63
		C36.93,233.14,32.72,267.5,32.3,268.34z M41.56,280.68c-1.12-0.56-4.49-4.91-5.47-6.17c-0.84-1.12,0.14-2.94,0.56-4.49l23.56-86.81
		c0.42-1.54,0.84-3.09,1.26-4.63c0.7-2.66,0.28-2.24,2.66-3.23c9.68-3.93,19.07-5.47,29.73-4.91c2.24,0.14,8.55,0.7,10.1,1.54
		c-0.56,1.54-2.94,5.19-3.79,6.73L41.56,280.68z M156.55,239.73c0.7-9.96-1.4-20.47-4.63-28.75c-3.37-8.55-7.29-13.88-12.9-20.61
		c-0.7-0.84-1.4-1.4-2.1-2.1c-1.54-1.68-4.91-4.49-6.73-5.89c-10.24-7.85-23-12.76-36.74-13.6c-38.42-2.24-69.14,27.49-71.24,63.11
		c-2.24,38.71,27.49,69.28,63.25,71.38c19.63,1.12,38.28-6.31,51.75-19.77c0.84-0.84,1.26-1.4,2.1-2.24
		c1.12-1.12,2.66-3.09,3.79-4.63C151.22,265.4,155.43,254.74,156.55,239.73z"/>
	<path id="XMLID_56_" class="st2" d="M49.27,287.97c0.84-0.28,16.27-12.2,19.07-14.44c2.1-1.68,4.07-3.23,6.17-4.77
		c7.71-5.61,17.53-13.46,25.24-19.35l31.55-24.12c1.68-1.4,18.09-13.6,18.65-14.44c-0.42-2.1-3.65-7.57-4.77-9.4
		c-4.35-6.87-7.15-9.82-12.9-15.29c-1.68-1.54-5.89-4.91-7.99-5.89l-30.15,38.56c-9.96,12.48-20.19,25.8-30.15,38.42l-17.67,22.58
		c-0.7,0.84-1.96,2.38-2.38,3.23C44.5,284.05,48.15,287.13,49.27,287.97z"/>
	<path id="XMLID_57_" class="st2" d="M100.18,178.73c0.84-1.68,3.23-5.19,3.79-6.73c-1.68-0.84-7.99-1.54-10.1-1.54
		c-10.8-0.56-20.05,0.98-29.73,4.91c-2.38,0.98-1.96,0.56-2.66,3.23c-0.42,1.54-0.84,3.09-1.26,4.63l-23.56,86.81
		c-0.42,1.54-1.26,3.37-0.56,4.49c0.98,1.4,4.35,5.75,5.47,6.17L100.18,178.73z"/>
	<path id="XMLID_58_" class="st2" d="M52.5,290.08c0.42,0.7,0.56,0.56,1.54,1.26c0.56,0.42,0.98,0.56,1.54,0.98
		c7.01,4.21,5.75,3.65,11.5,2.1l67.87-17.95c1.82-0.42,7.15-1.4,7.99-2.8c8.41-12.2,12.34-24.96,11.92-41.51
		c-0.98,0-5.47,2.8-6.59,3.51l-44.74,25.38c-8.69,5.05-17.11,9.54-25.66,14.58L52.5,290.08z"/>
	<path id="XMLID_61_" class="st2" d="M220.5,189.39c-0.28-1.68-0.14-33.1,0-33.94h4.49v30.29h15.15c0.28,0.98,0.28,2.66,0,3.65
		L220.5,189.39z M256.4,149.42h-47.12c-0.42,1.96-0.14,44.88-0.14,47.54h47.4C256.54,194.58,256.82,151.1,256.4,149.42z"/>
	<path id="XMLID_64_" class="st2" d="M220.5,276.61h4.49c0.28,2.1,0,16.13,0,19.49c0,6.31,1.96,11.5,8.41,11.36
		c10.38,0,8.69-12.06,8.69-21.04c0-2.8-0.28-7.15,0-9.82h4.49c0.28,2.38,0.14,21.04-0.14,23.56c-0.98,6.87-5.47,10.8-12.76,10.94
		c-7.71,0.14-11.92-3.79-13.04-10.8C220.22,298.07,220.08,278.86,220.5,276.61z M256.54,270.44h-47.4v47.54h47.54L256.54,270.44z"/>
	<path id="XMLID_67_" class="st2" d="M225.13,236.51v13.46h-4.49l-0.14-33.52c3.79-0.84,10.66-0.98,14.3-0.14
		c3.93,0.98,7.01,3.51,7.57,7.71c0.84,5.05-1.54,8.55-4.49,10.38C233.82,236.93,230.18,236.65,225.13,236.51z M209,257.68h47.54
		v-47.54H209V257.68z"/>
	<path id="XMLID_70_" class="st1" d="M176.61,242.96c-1.54,17.95-8.13,33.94-18.37,46.98l-5.05,5.89
		c-9.54,9.54-19.35,16.97-32.67,21.88c-23.98,8.83-49.36,7.29-71.8-4.35c-9.68-5.05-18.65-12.34-24.54-19.21
		c-7.29-8.41-12.48-16.27-16.55-27.07c-8.69-23.28-7.43-49.92,4.35-71.94c5.75-10.66,11.78-17.67,19.21-24.54
		c1.82-1.68,3.93-3.37,5.89-4.77c6.31-4.77,13.6-8.83,21.18-11.64c11.78-4.49,24.12-6.31,38.14-5.47
		C141.83,151.8,180.95,192.89,176.61,242.96z M0.05,235.95c0,3.37,0.42,7.15,0.7,10.38c0.7,8.69,3.79,18.37,7.15,26.08l2.66,5.47
		c1.82,3.09,2.52,5.05,5.33,8.69c1.82,2.52,2.38,3.51,4.63,6.31c2.52,3.09,5.33,5.75,7.99,8.55c3.09,3.09,8.83,7.29,12.48,9.68
		l7.01,4.07c7.29,3.65,11.78,5.47,20.05,7.57c13.32,3.37,29.03,3.37,42.35,0c7.99-1.96,12.9-3.93,20.05-7.57
		c0.7-0.42,1.12-0.7,1.82-0.98c0.56-0.28,1.12-0.56,1.82-0.98c4.63-2.8,10.66-6.87,14.44-10.52c0.56-0.56,0.98-0.7,1.54-1.26
		c4.63-4.63,9.12-9.26,12.9-14.86c2.8-4.21,6.03-9.54,7.99-14.16c2.66-6.45,3.93-9.4,5.47-16.69c3.65-17.11,2.94-27.77-1.12-44.17
		l-2.8-8.41c-0.28-0.7-0.56-1.4-0.84-1.96c-2.1-5.33-5.75-11.5-8.98-16.27c-1.4-2.24-5.47-7.29-7.43-9.26
		c-4.21-4.21-4.49-5.05-10.1-9.54c-0.56-0.42-0.98-0.7-1.54-1.26c-0.56-0.42-0.98-0.84-1.54-1.26c-4.91-3.65-10.1-6.59-15.85-9.26
		c-4.21-1.96-12.62-4.77-16.69-5.61c-16.69-3.65-32.53-2.94-48.66,2.52c-7.71,2.52-15.85,6.59-22.3,11.22
		c-3.65,2.66-5.89,4.21-9.26,7.43l-5.47,5.47c-0.84,0.98-1.82,1.82-2.66,2.94l-3.65,4.77C6.22,198.08,0.05,217.29,0.05,235.95z"/>
	<path id="XMLID_71_" class="st2" d="M32.3,268.34c0.42-0.84,4.63-35.2,5.19-39.13c0.84-6.59,1.68-13.04,2.52-19.63
		c0.42-3.23,0.84-6.45,1.26-9.68c0.28-2.24,1.26-7.85,1.12-9.68c-0.42,0.56-1.12,0.98-1.68,1.68c-4.35,5.33-5.75,6.73-9.54,13.6
		c-8.83,16.27-9.82,36.74-3.23,54.13C28.8,261.61,31.04,266.8,32.3,268.34z"/>
	<path id="XMLID_72_" class="st0" d="M265.52,311.11c0,0.84,0.98,0.7,1.96,0.7c0.84,0,1.68,0,2.52,0c0.56-2.38,0-20.33,0-24.68
		l-0.28-5.19l4.35,7.71c1.4,2.52,3.09,4.91,4.63,7.43c0.84,1.26,1.54,2.38,2.38,3.65l4.63,7.43c0.42,0.7,0.7,1.26,1.12,1.82
		c1.26,2.24,0.7,1.68,5.75,1.68v-36.04h-4.49v20.61c0,1.68,0.42,5.89,0.42,8.55c-0.14-0.14-0.14-0.14-0.28-0.42l-1.68-3.37
		c-1.82-3.51-9.12-15.15-11.22-18.51c-0.84-1.26-1.54-2.24-2.24-3.51c-2.66-4.35-0.84-3.51-7.43-3.51v35.62H265.52z"/>
	<path id="XMLID_75_" class="st0" d="M268.6,173.96c0-15.85,13.32-19.21,19.77-10.94c4.07,5.05,3.93,15.01,0,20.61
		c-4.07,5.89-12.76,5.89-16.83,0.14C269.86,181.25,268.6,177.89,268.6,173.96z M263.41,173.54c0,1.68,0.28,4.21,0.7,5.75
		c0.42,1.54,1.12,3.51,1.82,4.77c1.54,2.66,3.79,4.91,6.73,6.31c6.59,2.94,14.3,1.68,19.21-3.93c5.89-6.59,6.45-21.6-1.96-28.47
		c-6.87-5.61-18.09-4.07-23.14,3.37C264.67,164.85,263.41,169.19,263.41,173.54z"/>
	<path id="XMLID_78_" class="st0" d="M390.47,292.46h-5.19v-12.9c4.49-0.42,8.55-1.12,11.5,2.38
		C399.3,284.89,398.04,292.46,390.47,292.46z M380.51,276.05v35.76c2.94,0,4.77,0.42,4.77-0.7v-15.01c5.19,0,9.4-0.56,10.94,5.33
		l1.96,7.71c0.28,0.98,0.7,1.82,0.84,2.52c6.03,0,5.05,0.28,4.35-1.68c-1.4-4.07-2.24-14.3-7.15-15.43c0.56-0.7,1.54-0.84,2.24-1.4
		c0.84-0.56,1.54-0.98,2.1-1.82c1.82-2.52,2.1-3.51,2.1-6.73c0-3.09-1.68-5.61-3.51-7.01c-4.35-3.09-9.82-2.24-14.86-2.1
		C382.89,275.77,381.77,276.05,380.51,276.05z"/>
	<path id="XMLID_79_" class="st0" d="M438.99,250.95c0,0.98,0.98,0.7,3.23,0.7c0.56,0,0.7-0.14,0.7-0.7v-22.86
		c0-2.38-0.28-3.93-0.28-6.17c0.14,0.14,0.14,0.14,0.28,0.42c1.4,2.66,3.09,7.43,5.19,10.94c1.96,3.37,3.93,7.99,6.03,11.22
		c0.42,0.7,0.56,1.12,0.98,1.82c3.37,6.03,1.54,5.33,6.31,5.33c0.56,0,0.7-0.14,0.7-0.7v-34.78c0-0.98-1.26-0.7-3.93-0.7v22.86
		c0,2.38,0.28,3.93,0.28,6.17l-14.86-29.03h-4.49v35.48H438.99z"/>
	<path id="XMLID_82_" class="st0" d="M421.88,248.15c-14.58,0-12.34-33.52,2.1-29.03c6.87,2.1,8.13,13.32,6.73,19.63
		C429.59,243.1,427.07,248.15,421.88,248.15z M407.71,232.86c0,5.61,0.7,9.4,3.37,13.46c6.73,10.38,24.54,7.43,24.54-13.46
		c0-19.21-17.39-22.72-24.4-12.34C409.26,223.47,407.71,228.09,407.71,232.86z"/>
	<path id="XMLID_85_" class="st0" d="M300.43,248.15c-3.65,0-5.75-1.68-7.29-4.21c-3.51-5.61-3.37-15.71,0.14-21.04
		c5.05-7.57,16.41-5.19,16.41,11.08C309.55,239.87,306.89,248.15,300.43,248.15z M286.13,231.74c0,5.75,0,10.24,3.51,15.01
		c3.09,4.07,5.61,5.33,10.8,5.33c2.8,0,5.19-1.12,7.01-2.66c7.99-6.59,7.85-21.74,2.66-29.31c-5.05-7.29-17.95-8.27-23,5.19
		C286.69,226.83,286.13,229.78,286.13,231.74z"/>
	<path id="XMLID_88_" class="st0" d="M273.51,232.3h-4.49v-12.9c2.66-0.28,4.91-0.84,7.43,0.28
		C281.92,222.34,280.38,232.3,273.51,232.3z M264.95,216.59v34.36c0,0.98,1.4,0.7,4.07,0.7v-15.01c0-0.84,0.7-0.7,2.52-0.7
		c7.57,0,6.73,6.31,8.55,13.6c0.56,2.52,0.28,2.1,4.21,2.1c1.12,0,0.14-1.4-0.56-4.21c-1.26-5.61-0.98-9.96-5.05-12.76
		c-0.28-0.14-0.28-0.14-0.42-0.42c1.54-0.42,3.09-1.96,4.07-3.37c3.51-5.19,1.68-15.57-8.13-15.57
		C272.81,215.19,264.95,215.05,264.95,216.59z"/>
	<path id="XMLID_89_" class="st0" d="M351.34,276.33v34.78c0,0.56,0.14,0.7,0.7,0.7h19.77v-4.07h-14.86c-0.56,0-0.7-0.14-0.7-0.7
		c0-14.16-0.98-12.2,2.94-12.2h7.71c3.79,0,3.23,0.84,3.23-3.93h-14.02V279.7h14.16c0.98,0,0.7-1.12,0.7-3.51
		c0-0.56-0.14-0.7-0.7-0.7h-18.51C351.48,275.63,351.34,275.77,351.34,276.33z"/>
	<path id="XMLID_90_" class="st0" d="M336.48,191.35h19.77c0.98,0,0.7-1.12,0.7-3.51c0-0.56-0.14-0.7-0.7-0.7h-15.01v-12.62h13.32
		c0.98,0,0.7-1.4,0.7-4.07h-14.02v-11.22h14.86c0-2.66,0.42-4.07-0.7-4.07h-18.93V191.35z"/>
	<path id="XMLID_91_" class="st1" d="M220.5,276.61c-0.28,2.24-0.14,21.46,0.14,23.7c1.12,7.01,5.33,10.94,13.04,10.8
		c7.29-0.14,11.78-4.21,12.76-10.94c0.42-2.38,0.56-21.18,0.14-23.56h-4.49c-0.28,2.52,0,7.01,0,9.82c0,8.98,1.82,21.04-8.69,21.04
		c-6.45,0-8.41-5.19-8.41-11.36c0-3.51,0.14-17.39,0-19.49L220.5,276.61z"/>
	<path id="XMLID_92_" class="st0" d="M327.5,311.81c6.59,0,3.79,1.26,7.71-8.69c0.56-1.54,1.12-2.94,1.68-4.63l7.29-20.47
		c0.28-0.84,0.7-1.54,0.7-2.52h-5.19c-0.14,1.12-0.84,2.66-1.26,3.79l-2.52,7.71c-1.12,3.51-2.94,7.99-3.93,11.36l-1.68,6.03
		c-0.14,0.42-0.14,0.56-0.28,0.98l-0.42,0.84c-1.54-6.31-5.89-20.47-7.99-26.79c-0.42-1.4-0.84-2.52-1.26-3.93h-5.19
		c0,1.12,2.38,7.57,2.94,9.12l7.43,22.72C326.1,309.43,326.52,311.81,327.5,311.81z"/>
	<path id="XMLID_93_" class="st0" d="M312.35,191.35h5.19l12.9-36.18h-4.91c-0.98,1.82-9.12,26.5-9.68,28.75l-0.56,1.96
		c-0.28-1.26-0.7-2.52-1.12-3.93c-0.42-1.26-0.7-2.66-1.12-4.07l-6.59-21.32c-0.56-1.96,0.14-1.54-5.47-1.54
		c0,1.68,6.31,19.77,7.15,22.44l2.94,9.12C311.37,188.13,312.07,189.95,312.35,191.35z"/>
	<path id="XMLID_96_" class="st1" d="M209.28,149.42h47.12c0.42,0.28,0.28,0,0.42,0.7v0.56l-0.14,46.42
		c-1.68,0.42-46.84,0.28-47.82,0c-0.28-2.8,0-19.63,0-23.98c0-3.09-0.28-19.77,0-22.58C208.86,149.56,208.58,149.7,209.28,149.42z
		 M207.04,149.42v47.68c0,0.84,0.56,1.68,1.26,1.68h48.8c0.56,0,1.26-0.84,1.26-1.26v-48.66c0-0.56-0.84-1.26-1.26-1.26h-48.8
		C207.6,147.74,207.04,148.58,207.04,149.42z"/>
	<path id="XMLID_99_" class="st1" d="M209.14,270.58h47.4l0.28,2.8c0,6.59,0.28,43.19-0.14,44.88c-1.4,0.28-46.98,0.28-47.68,0
		c-0.42-1.96,0-38.28-0.14-45.02c0-0.42,0-1.12,0-1.54L209.14,270.58z M207.04,270.02v48.24c0,0.98,0.7,1.68,1.68,1.68h47.96
		c0.84,0,1.68-0.56,1.68-1.26v-48.66c0-0.56-0.84-1.26-1.26-1.26h-48.8C207.88,268.76,207.04,269.6,207.04,270.02z"/>
	<path id="XMLID_102_" class="st1" d="M256.54,257.68H209l-0.28-1.26c0-6.87-0.14-44.74,0.14-46.42c0.84-0.28,46.28-0.42,47.68,0
		c0.42,2.1,0.14,9.4,0.14,11.92C256.82,224.17,257.1,256.7,256.54,257.68z M207.04,209.86v48.24c0,0.56,0.84,1.26,1.26,1.26h48.8
		c0.56,0,1.26-0.84,1.26-1.26v-48.66c0-0.7-0.98-1.26-1.68-1.26h-47.96C207.74,208.18,207.04,208.88,207.04,209.86z"/>
	<path id="XMLID_105_" class="st0" d="M477.55,220.24l1.12,4.07c0.42,1.4,0.7,2.66,1.12,4.07c0.28,1.26,0.7,2.66,1.12,4.07
		c0.42,1.54,0.84,2.66,1.26,4.21h-8.83c0-0.98,1.82-6.73,2.24-8.13C476.29,225.57,476.85,223.18,477.55,220.24z M465.49,251.65
		c3.23,0,3.51,0.28,3.93-0.84c0.14-0.42,0.28-0.98,0.42-1.54l2.52-8.98h10.52c0.42,1.96,1.12,4.07,1.68,5.89
		c0.28,1.12,0.56,2.1,0.84,2.94c0.84,3.09,0,2.52,4.35,2.52c1.12,0,0.14-1.96-0.42-4.07c-0.42-1.4-0.84-3.09-1.26-4.49l-6.59-22.86
		c-0.42-1.54-0.98-3.09-1.4-4.63h-4.77l-5.47,18.23c-0.98,2.94-1.54,6.17-2.52,9.26l-2.1,6.73c-0.14,0.28-0.28,1.12-0.42,1.12
		C464.93,251.23,464.79,251.65,465.49,251.65z"/>
	<path id="XMLID_106_" class="st0" d="M410.94,284.75c0,8.13,7.85,9.4,12.48,11.78c1.54,0.84,3.65,2.8,3.65,4.49
		c0,2.38,0.14,3.79-2.1,5.61c-4.77,3.93-13.04-0.7-13.6-0.7c-0.28,1.12-0.98,2.8-1.12,4.07c3.09,0.7,2.1,2.1,10.38,2.1
		c11.64,0,14.72-12.9,7.71-18.23c-3.37-2.52-8.69-3.65-11.08-5.89c-3.79-3.65-0.56-10.94,8.98-8.55c0.56,0.14,1.12,0.28,1.68,0.56
		c0.7,0.28,0.7,0.42,1.54,0.56c0.28-3.23,3.51-3.79-2.38-5.05C419.63,273.95,410.94,276.61,410.94,284.75z"/>
	<path id="XMLID_109_" class="st1" d="M225.13,219.54c6.17-1.12,13.18,0,12.76,6.87c-0.28,5.89-6.87,7.85-12.76,6.31V219.54z
		 M225.13,236.51c5.05,0.28,8.69,0.42,12.76-2.1c2.94-1.82,5.33-5.33,4.49-10.38c-0.7-4.21-3.65-6.73-7.57-7.71
		c-3.65-0.84-10.52-0.7-14.3,0.14l0.14,33.52h4.49L225.13,236.51z"/>
	<path id="XMLID_110_" class="st0" d="M337.74,216.17v34.78c0,0.56,0.14,0.7,0.7,0.7h16.13c0.98,0,0.7-1.4,0.7-4.07h-13.18v-12.9
		h11.64v-3.93h-11.64v-11.22h12.48c0-2.66,0.42-4.07-0.7-4.07h-15.43C337.88,215.47,337.74,215.61,337.74,216.17z"/>
	<path id="XMLID_111_" class="st0" d="M495.36,311.81c5.19,0,4.77,0.42,4.77-1.68v-13.18c0-0.98,0.56-1.54,0.98-2.24
		c0.42-0.84,0.84-1.4,1.26-2.24c0.84-1.4,9.4-15.71,9.68-16.83h-5.19l-2.24,4.07c-0.98,1.68-6.31,12.2-6.31,13.04l-8.83-16.97h-5.33
		c0.28,1.12,3.51,6.59,4.07,7.71l6.31,11.36c1.12,1.82,0.84,2.38,0.84,5.19C495.08,303.12,494.8,309.29,495.36,311.81z"/>
	<path id="XMLID_112_" class="st0" d="M395.79,176.77v14.58h4.77v-14.58c0-0.98,2.24-4.35,2.8-5.47l8.69-15.01
		c0.84-1.4,0.14-0.98-4.49-0.98c-0.7,0-2.1,3.23-2.38,4.07c-1.82,3.65-3.79,6.87-5.61,10.8c-0.28,0.56-0.84,1.82-0.98,2.38
		c-0.56-0.42-5.61-11.08-6.45-12.9c-0.84-1.54-1.54-2.94-2.24-4.35h-5.33c0.28,1.12,0.84,1.82,1.4,2.66
		c0.56,0.98,0.98,1.82,1.4,2.66c1.96,3.37,3.79,7.15,5.89,10.52c0.56,0.84,0.84,1.82,1.4,2.66
		C394.81,174.38,395.79,175.93,395.79,176.77z"/>
	<path id="XMLID_113_" class="st0" d="M452.31,279.84h10.94v31.41c0,0.84,0.98,0.7,1.96,0.7c0.98,0,1.82,0,2.8,0
		c0.56-2.38,0.28-27.49,0.28-32.11h10.8v-4.21h-26.64v4.21H452.31z"/>
	<path id="XMLID_114_" class="st0" d="M378.41,224.73c0,11.08,13.74,9.12,13.74,16.55c0,6.31-4.35,7.71-9.68,6.31
		c-2.24-0.7-2.66-1.4-3.65-1.68c-0.28,0.98-0.84,2.8-0.84,3.65c0,1.68,11.92,5.89,16.83-1.82c1.68-2.8,2.1-6.87,0.84-10.24
		c-2.66-7.01-12.9-6.31-12.9-12.48c0-1.68,0-3.37,1.54-4.63c2.8-2.52,7.15-1.12,9.82,0.42c0-0.56,0.84-3.51,1.12-3.93
		c-4.07-2.66-10.38-2.66-13.88,0.84C379.81,219.12,378.41,221.64,378.41,224.73z"/>
	<path id="XMLID_115_" class="st0" d="M357.79,224.31c0,12.34,13.74,8.83,13.74,17.67c0,3.23-2.1,5.61-4.91,6.03
		c-3.79,0.56-5.89-0.84-8.41-2.1c-0.28,0.56-0.98,3.37-1.12,4.07c0.56,0.28,1.12,0.56,1.54,0.84c0.56,0.28,1.12,0.42,1.68,0.7
		c4.07,1.26,9.26,0.98,12.48-2.24c3.93-3.93,4.35-13.32-3.09-17.11c-3.23-1.68-7.99-3.09-7.99-7.71c0-3.37,2.38-5.33,6.03-5.33
		c2.52,0,3.79,0.84,5.33,1.68c0.28-0.7,1.12-3.23,1.12-4.07c-0.7-0.14-2.52-1.68-6.73-1.68
		C362.14,214.77,357.79,218.84,357.79,224.31z"/>
	<path id="XMLID_116_" class="st0" d="M317.4,216.17v34.78c0,0.98,1.26,0.7,3.65,0.7c0.56,0,0.7-0.14,0.7-0.7v-15.71h11.36v-3.93
		h-11.36v-11.78h12.2v-4.07H318.1C317.54,215.47,317.4,215.61,317.4,216.17z"/>
	<path id="XMLID_117_" class="st0" d="M364.8,191.35h19.49c0.56,0,0.7-0.14,0.7-0.7v-3.37h-15.43v-32.11h-4.77V191.35z"/>
	<path id="XMLID_118_" class="st3" d="M220.5,189.39h19.77c0.14-0.98,0.28-2.66,0-3.65h-15.15v-30.29h-4.49
		C220.22,156.15,220.22,187.57,220.5,189.39z"/>
	<path id="XMLID_119_" class="st0" d="M493.26,216.17v34.78c0,0.56,0.14,0.7,0.7,0.7h15.85c0.98,0,0.7-1.4,0.7-4.07h-12.9v-31.41
		c0-0.98-1.26-0.7-3.65-0.7C493.4,215.47,493.26,215.61,493.26,216.17z"/>
	<path id="XMLID_120_" class="st0" d="M303.38,311.11c0,1.12,2.66,0.7,4.77,0.7c0.56-2.38,0.28-30.57,0.28-35.48
		c0-1.12-1.96-0.7-4.91-0.7v35.48H303.38z"/>
	<path id="XMLID_121_" class="st2" d="M89.24,301.58c10.24,0,24.26-3.09,32.25-8.55l-49.5,6.03c0.28,0.28-0.28,0,0.42,0.28
		C75.36,300.74,86.58,301.58,89.24,301.58z"/>
	<path id="XMLID_122_" class="st0" d="M440.95,311.11c0,0.56,0.14,0.7,0.7,0.7h4.07v-36.18h-4.77V311.11z"/>
	<path id="XMLID_123_" class="st4" d="M225.13,219.54v13.18c6.03,1.54,12.48-0.56,12.76-6.31
		C238.31,219.54,231.3,218.42,225.13,219.54z"/>
	<path id="XMLID_124_" class="st0" d="M400.14,250.95c0,0.98,1.12,0.7,3.51,0.7c0.56,0,0.7-0.14,0.7-0.7v-35.48h-4.07v35.48H400.14z
		"/>
	<path id="XMLID_125_" class="st0" d="M53.62,162.46c-5.75,2.1-2.24,10.52,3.23,8.27C62.03,168.49,58.95,160.5,53.62,162.46z"/>
	<path id="XMLID_126_" class="st0" d="M101.3,155.31c-5.75,1.54-3.65,9.96,2.1,8.55c2.1-0.42,3.79-2.8,3.23-5.33
		C106.07,156.57,103.96,154.61,101.3,155.31z"/>
	<path id="XMLID_127_" class="st0" d="M10.29,234.4c-5.89,1.68-3.37,9.96,2.38,8.41C17.86,241.56,16.04,232.86,10.29,234.4z"/>
	<path id="XMLID_128_" class="st0" d="M114.2,313.36c2.94-0.42,6.31-2.24,5.05-5.89c-1.26-3.79-4.35-3.09-7.71-1.96L114.2,313.36z"
		/>
	<path id="XMLID_129_" class="st5" d="M209,257.68v-47.54h47.54v47.54c0.56-0.98,0.28-33.52,0.28-35.76c0-2.66,0.28-9.96-0.14-11.92
		c-1.4-0.28-46.98-0.28-47.68,0c-0.28,1.68-0.14,39.41-0.14,46.42L209,257.68z"/>
	<path id="XMLID_130_" class="st5" d="M256.54,270.44v47.54H209v-47.54l-0.28,1.12c0,0.42,0,1.12,0,1.54
		c0,6.87-0.28,43.05,0.14,45.02c0.84,0.28,46.28,0.42,47.68,0c0.42-1.82,0.14-38.28,0.14-44.88L256.54,270.44z"/>
	<path id="XMLID_133_" class="st1" d="M10.29,234.4c5.75-1.54,7.57,7.15,2.38,8.41C6.92,244.36,4.4,236.09,10.29,234.4z
		 M5.94,239.59c0.98,6.73,11.92,5.75,10.8-1.82C15.76,230.9,4.82,232.02,5.94,239.59z"/>
	<path id="XMLID_136_" class="st1" d="M101.3,155.31c2.66-0.7,4.77,1.12,5.33,3.23c0.56,2.66-1.12,4.91-3.23,5.33
		C97.65,165.41,95.55,156.85,101.3,155.31z M101.16,154.33c-7.15,1.54-4.77,12.2,2.38,10.66c2.66-0.56,4.77-3.37,4.07-6.59
		C107.05,155.87,104.39,153.63,101.16,154.33z"/>
	<path id="XMLID_139_" class="st1" d="M53.62,162.46c5.33-1.96,8.41,6.03,3.23,8.27C51.38,173.12,47.87,164.57,53.62,162.46z
		 M53.76,161.34c-7.15,2.1-4.07,12.34,2.8,10.52C63.44,170.04,60.63,159.38,53.76,161.34z"/>
	<path id="XMLID_140_" class="st6" d="M256.4,149.42c0.42,1.68,0.14,45.16,0.14,47.68h-47.4c0-2.66-0.28-45.72,0.14-47.54
		c-0.56,0.28-0.28,0-0.42,0.98c-0.14,2.8,0,19.49,0,22.58c0,4.35-0.28,21.18,0,23.98c0.98,0.28,46.14,0.42,47.82,0l0.14-46.42v-0.56
		C256.54,149.42,256.82,149.7,256.4,149.42z"/>
	<path id="XMLID_141_" class="st1" d="M49.97,308.17c0.56-0.28,0.7-0.98,0.98-1.54c0.84-1.68,1.96-3.37,2.52-5.05l2.66,9.4
		c0.14,0.28,0.14,0.28,0.28,0.42c0.56-0.7,4.63-8.55,4.63-9.26l-0.56-0.28c-0.7,0.42-3.09,5.75-3.79,6.73
		c-0.84-2.24-1.68-8.83-2.66-10.1c-0.7,0.84-3.09,5.61-3.93,7.29C48.99,308.17,49.13,307.61,49.97,308.17z"/>
	<path id="XMLID_144_" class="st1" d="M111.54,305.5c3.37-1.12,6.45-1.82,7.71,1.96c1.26,3.65-2.1,5.47-5.05,5.89L111.54,305.5z
		 M110.28,304.94c0.56,1.82,2.66,8.69,3.51,9.68c3.93-0.98,8.27-2.66,6.45-7.71c-0.56-1.68-1.96-3.23-4.07-3.51
		C114.62,303.26,111.4,304.24,110.28,304.94z"/>
	<path id="XMLID_148_" class="st1" d="M79.98,312.66c1.96,0,4.07,0.56,3.65,2.66c-0.28,1.82-2.38,1.54-4.21,1.26L79.98,312.66z
		 M80.55,308.31c1.4,0,1.96,0.14,2.94,0.98c0.28,2.24-1.26,2.94-3.37,2.24L80.55,308.31z M83.21,312.23
		c0.56-0.56,1.12-0.7,1.26-1.68c0.56-3.09-2.8-3.23-4.91-3.51l-1.26,10.24c2.1,0.28,4.35,0.98,5.75-0.56
		C86.15,314.48,83.49,312.51,83.21,312.23z"/>
	<path id="XMLID_149_" class="st1" d="M110.28,315.6c-0.14-1.54-0.7-3.79-0.98-5.33c-0.14-0.98-0.42-1.82-0.56-2.66
		c-0.56-2.8-0.14-1.96-1.12-2.1c0,0-0.28-0.14-0.14,1.12l0.56,2.94c0.28,1.26,0.56,2.52,0.7,3.79c-0.84-0.42-3.23-2.38-4.21-3.09
		c-0.98-0.84-3.23-2.66-4.21-3.09c0.14,1.54,0.7,3.65,0.98,5.33c0.14,0.84,0.7,4.21,1.26,4.91l0.84-0.14l-1.4-7.57
		C103.68,310.41,108.87,315.04,110.28,315.6z"/>
	<path id="XMLID_150_" class="st1" d="M160.06,192.33c-0.7,0.14-8.41,4.63-8.98,5.19l0.42,0.7c0.7-0.14,5.89-3.09,6.73-3.65
		c0,1.96-3.23,8.13-3.09,9.82c1.4-0.56,3.09-1.68,4.49-2.52c0.7-0.42,1.54-0.84,2.38-1.4c1.4-0.7,1.82-0.7,1.96-1.54
		c-0.56-0.7-0.7-0.42-1.68,0.14l-5.47,2.94L160.06,192.33z"/>
	<path id="XMLID_153_" class="st1" d="M167.91,227.67l3.23-0.42c0.7,1.4,0.7,4.21-1.12,4.49
		C167.91,232.16,167.63,229.5,167.91,227.67z M162.02,227.95c0.84,0.42,3.65-0.14,4.91-0.14c-0.42,2.1-5.19,3.79-4.21,5.75
		c1.26-0.7,2.8-2.8,4.35-3.79c0.56,1.12,0.14,1.82,1.26,2.66c0.84,0.56,2.1,0.7,3.09,0.14c1.54-0.98,1.26-2.8,1.12-4.49l-0.28-1.26
		l-0.14-0.14l-0.14-0.14c-1.54,0-9.26,0.42-10.1,0.98L162.02,227.95z"/>
	<path id="XMLID_154_" class="st1" d="M109.01,166.25l0.7,0.28c0.7-0.98,0.98-2.24,1.26-3.51c0.42-1.12,0.7-2.66,1.26-3.65
		c0.98,1.12,3.09,7.29,4.07,9.26c0.14,0,0.28,0,0.56-0.98c0.14-0.42,0.28-0.84,0.42-1.26c0.42-1.54,2.38-6.73,2.24-7.57l-0.7-0.14
		c-1.26,1.68-1.4,5.47-2.52,7.29c-1.12-1.4-3.23-8.55-4.35-9.4C111.54,158.12,108.87,165.27,109.01,166.25z"/>
	<path id="XMLID_157_" class="st1" d="M41.56,170.04c0.98-0.84,3.23-2.66,4.49-0.98c1.12,1.82-1.4,3.37-2.52,3.79
		C42.82,172.56,41.7,170.74,41.56,170.04z M40.02,169.76c0.28,0.84,5.33,8.13,6.03,8.55l0.56-0.42c0-0.84-2.1-3.09-2.24-3.51
		c-0.42-1.26-0.14-0.28,0-0.7c1.12-0.84,5.05,2.8,6.87,0.84c-1.26-0.42-4.77-1.12-5.61-1.96c2.8-1.82,1.68-4.49,0.14-5.19
		C43.66,166.53,41.28,169.05,40.02,169.76z"/>
	<path id="XMLID_158_" class="st1" d="M20.95,279.98c0.84,3.37,6.87,2.8,5.89-1.54C26.13,274.65,19.96,275.91,20.95,279.98z"/>
	<path id="XMLID_159_" class="st1" d="M150.94,279.56c0.42,3.65,6.45,3.51,6.17-0.7C156.69,275.07,150.38,275.49,150.94,279.56z"/>
	<path id="XMLID_162_" class="st1" d="M70.45,311.39c0.28-0.7,1.96-2.66,2.52-3.09l0.7,3.93L70.45,311.39z M66.38,314.9
		c1.26,0.28,2.52-1.82,3.09-2.8l4.35,1.12c0.98,0.7-0.28,3.51,1.96,3.79c0-1.4-1.82-10.24-2.38-11.22
		c-0.56,0.28-0.56,0.42-1.12,1.12l-2.66,3.37c-0.56,0.7-1.12,1.4-1.82,2.24c-1.96,2.38-1.4,2.1-1.4,2.1L66.38,314.9z"/>
	<path id="XMLID_163_" class="st1" d="M170.02,218.7c0.14,0.98,0.28,1.82,0.56,2.66c0.42,2.52,0.28,1.96,0.98,1.82
		c0.28-0.56,0.28-0.56,0.14-1.54l-0.84-4.35l-10.1,1.96c0.14,1.4,0.56,4.91,1.26,5.75l0.84-0.14l-0.84-4.77l3.93-0.7
		c0.14,0.84,0.28,1.82,0.56,2.66c0.28,1.26,0,1.96,1.12,1.82c0.42-0.84-0.56-3.51-0.7-4.77L170.02,218.7z"/>
	<path id="XMLID_164_" class="st1" d="M69.05,156.15c0.14,1.26,1.68,9.12,2.1,9.96c1.12,0,2.1-0.28,3.23-0.56
		c2.66-0.56,2.38-0.28,2.38-1.26c-0.7-0.56-3.65,0.56-4.91,0.56l-0.84-3.79c0.84-0.42,1.68-0.42,2.52-0.56
		c2.66-0.56,2.1-0.14,2.1-1.12c-0.56-0.42,0-0.28-0.98-0.14c-0.84,0.14-2.24,0.7-3.65,0.7c-0.42-0.7-0.7-2.1-0.7-3.09
		c0.84-0.14,1.68-0.28,2.52-0.56c1.26-0.28,2.1,0,1.96-1.26C74.23,154.61,69.89,155.73,69.05,156.15z"/>
	<path id="XMLID_167_" class="st1" d="M123.18,166.81l3.09-2.38l-0.14,3.79l-2.52-1.12C123.32,166.95,123.32,166.95,123.18,166.81z
		 M118.13,169.33l0.7,0.42c1.26-0.42,1.96-1.54,3.23-2.1l3.93,1.96c0,3.37-0.56,3.79,0.84,4.21l0.42-11.36
		C126.54,162.6,118.97,168.49,118.13,169.33z"/>
	<path id="XMLID_170_" class="st1" d="M127.66,300.03c0.84,0.28,2.66,1.68,3.23,2.1c-0.42,0.42-2.24,1.54-2.94,1.68L127.66,300.03z
		 M131.87,302.98c2.38,0.84,2.38,2.52,4.07,1.54c-0.56-0.84-3.65-2.66-4.63-3.37c-1.12-0.84-3.79-2.8-4.91-3.23l1.12,11.36
		l0.98-0.42l-0.28-3.79L131.87,302.98z"/>
	<path id="XMLID_171_" class="st1" d="M9.45,217.58c0.14-0.98,0.42-1.82,0.7-2.8c0.7-2.38,0.56-1.96-0.28-2.1
		c-0.7,0.42-0.84,1.82-0.98,2.66c-0.28,0.98-0.56,1.96-0.7,2.94l9.96,2.52c0.28-1.12,0.56-2.1,0.84-3.09
		c0.7-2.66,0.98-2.38-0.14-2.66c-0.84,0.56-0.98,3.51-1.54,4.63l-3.79-0.98c0.14-1.12,1.4-4.07,0.84-4.77
		c-0.84,0-0.56-0.42-0.98,0.7c-0.28,1.12-0.42,2.66-0.98,3.79L9.45,217.58z"/>
	<path id="XMLID_172_" class="st1" d="M153.47,183.22c-0.56,0.28-1.68,1.26-2.24,1.68c-2.66,2.1-5.89,3.93-4.35,7.01
		c2.38,4.63,7.15-0.42,9.96-2.66c1.4-1.12,0.42-1.82-0.7-0.84l-4.49,3.65c-0.84,0.7-1.82,1.12-2.94,0.42
		c-0.7-0.42-1.4-1.54-1.12-2.8c0.42-1.4,5.19-4.35,6.31-5.75L153.47,183.22z"/>
	<path id="XMLID_173_" class="st1" d="M50.96,297.09c-2.1,2.38-3.65,6.59-5.47,7.01c-1.26,0.28-2.24-0.42-2.66-1.12
		c-0.98-1.82,1.26-4.35,2.1-5.61c0.14-0.28,2.94-3.93,1.26-3.51c-0.42,0.14-3.65,5.33-4.07,5.89c-1.4,2.24,0,4.49,1.82,5.05
		c2.52,0.98,4.07-1.4,4.91-2.8c0.56-0.84,2.8-4.07,2.94-4.77L50.96,297.09z"/>
	<path id="XMLID_176_" class="st1" d="M34.13,176.35c0.28-0.7,0.42-0.56,0.98-1.12c3.37-2.8,5.75,0.7,1.26,3.51
		C35.81,178.45,34.55,176.91,34.13,176.35z M32.72,176.07c0.56,0.98,5.89,7.43,6.73,7.85l0.56-0.56c-0.7-1.26-2.38-2.52-2.94-3.93
		c1.54-0.84,4.49-3.51,1.96-5.75C36.65,171.58,33.01,175.5,32.72,176.07z"/>
	<path id="XMLID_179_" class="st1" d="M37.91,292.74c0.42-0.98,1.4-1.82,2.1-2.52c0.84,0.42,3.65,2.38,2.1,4.07
		C40.72,295.83,38.47,293.44,37.91,292.74z M34.83,294.56c-2.8,3.23-0.7,2.38-0.28,1.96c0.84-0.98,1.4-1.96,2.52-2.94
		c1.26,0.56,4.35,4.49,6.45,0.7c1.4-2.66-3.23-5.61-3.65-5.75L34.83,294.56z"/>
	<path id="XMLID_180_" class="st1" d="M171.14,240.85c4.21-1.82,0.42-7.71-2.66-4.21c-0.7,0.84-1.82,2.66-2.94,3.09
		c-1.96,0.7-3.09-1.82-1.68-3.09c0.98-0.98,1.4-0.84,0.84-1.4c-1.12-1.12-4.21,3.65-0.84,5.47c3.93,1.96,4.77-4.77,7.57-3.79
		c1.82,1.26-0.14,2.52-0.42,3.37L171.14,240.85z"/>
	<path id="XMLID_181_" class="st1" d="M87,153.35c-2.1,0.84-1.68,3.23-0.42,4.35c1.12,0.98,3.51,2.1,3.37,3.79
		c-0.14,0.98-0.84,1.68-1.96,1.54c-1.4-0.14-1.54-1.26-2.1-1.4c-1.68-0.56-0.14,2.94,2.8,2.38c1.68-0.28,3.09-2.1,1.96-4.07
		c-0.84-1.68-2.8-2.24-3.65-3.37c-0.56-0.84-0.42-1.82,0.42-2.24c1.26-0.56,1.82,0.56,2.38,0.84
		C91.76,156.01,89.66,152.23,87,153.35z"/>
	<path id="XMLID_182_" class="st1" d="M78.16,162.18l-0.7,0.56c2.1,4.21,8.41,0.28,4.91-3.09c-0.84-0.84-3.37-1.96-3.93-2.8
		c-0.7-1.4,0.7-2.66,2.24-1.82c0.84,0.42,0.14,0.42,1.12,0.56l0.28-0.42c-0.56-1.4-2.94-2.1-4.35-0.7
		c-1.54,1.68-0.14,3.51,1.12,4.21c1.12,0.7,3.65,1.68,3.09,3.51c-0.28,0.84-1.12,1.4-2.1,1.26C79,163.3,78.72,162.6,78.16,162.18z"
		/>
	<path id="XMLID_183_" class="st1" d="M161.04,212.53c0.14-0.56,2.8-2.8,3.37-3.23c2.52-2.24,3.09-2.24,2.66-3.51
		c-0.7,0.28-5.75,4.91-6.59,5.75c-1.12,1.12-1.68,1.26-1.82,1.96l11.22,0.84c-0.28-1.26-0.14-1.12-1.54-1.12L161.04,212.53z"/>
	<path id="XMLID_184_" class="st1" d="M12.39,224.17c-1.12-0.7-3.65-2.52-4.91-2.8c-0.14,1.26,0.56,1.4,1.4,1.96l5.61,3.51
		c-0.84,0.84-3.23,0.98-4.49,1.4c-3.37,0.84-3.65,0.56-3.79,1.96c1.68-0.28,3.65-0.98,5.47-1.4l5.19-1.54l0.14-0.14
		C16.18,226.27,13.65,225.01,12.39,224.17z"/>
	<path id="XMLID_185_" class="st1" d="M61.33,158.4l2.38,7.29c0.28,0.7,0.42,1.96,1.12,2.38c0.98-0.28,0.84,0.28,0-2.38
		c-0.28-0.98-0.7-1.82-0.84-2.66c2.8-0.98,4.07-0.84,3.65-1.96c-0.28-0.14,0-0.14-0.42-0.14c-0.14,0-0.28,0-0.42,0.14
		c-0.28,0-0.7,0.28-0.98,0.28c-0.7,0.28-1.26,0.42-2.1,0.56c-0.42-0.7-0.98-2.1-0.98-3.09l3.79-1.26l-0.14-0.7
		C65.68,156.71,61.89,157.98,61.33,158.4z"/>
	<path id="XMLID_186_" class="st1" d="M166.09,256.98c1.82-1.4,4.49-0.28,4.91-2.66c-1.82,0.28-3.65,1.12-5.47,1.54
		c-1.68,0.42-4.35-1.4-5.47-0.7c-0.14,0.84-0.14,0.7,0.98,0.98c1.82,0.42,3.23,0.56,4.21,1.54l2.8,2.94c0.42,0.56,0.42,0.7,0.98,0.7
		C169.59,259.65,167.63,259.09,166.09,256.98z"/>
	<path id="XMLID_187_" class="st1" d="M23.33,203.55c-1.12-0.56-3.09-1.26-3.79-1.96c-0.84-1.12-2.24-3.93-3.23-4.77
		c-1.12,1.4,0.98,2.52,2.1,5.05c-3.79,0.56-4.91-0.14-5.33,1.54c1.68,0,4.91-0.7,6.17-0.56c1.26,0.14,3.51,1.96,4.63,1.82
		C24.31,203.83,24.17,203.83,23.33,203.55z"/>
	<path id="XMLID_188_" class="st1" d="M171.14,252.63c0.42-0.7,0.42-2.1,0.7-2.94c0.56-3.09,0.7-2.38-0.28-2.66
		c-0.98,0.56-0.14,0.7-0.84,2.1c-2.1-0.14-7.71-1.68-9.12-1.4c-0.14,1.26,0.28,0.98,1.68,1.12l7.43,1.26c0,0.7-0.42,1.82-0.14,2.38
		L171.14,252.63z"/>
	<path id="XMLID_189_" class="st1" d="M94.99,320.93c-0.56-2.66-1.26-3.79-1.26-7.01s0.7-4.49,1.12-6.87c-1.12,0-1.12,0.14-1.4,1.12
		c-0.84,3.23-0.98,6.73-0.28,10.1C93.45,319.67,93.45,320.93,94.99,320.93z"/>
	<path id="XMLID_190_" class="st1" d="M17.72,250.25c-0.14-0.98-0.28-1.96-0.42-2.8c-0.42-2.8,0-1.96-0.98-2.1
		c-0.42,0.56-0.14,1.26,0,1.96c0.14,0.7,0.28,1.26,0.14,1.96l-9.12,1.4v0.7C8.46,251.79,16.32,250.53,17.72,250.25z"/>
	<path id="XMLID_191_" class="st1" d="M128.37,175.08c1.96,0.7,3.65,2.8,4.35,1.96c0.42-0.7-0.56-0.98-1.26-1.4
		c-0.56-0.28-1.4-0.84-1.68-1.26c0.98-2.1,6.45-9.26,3.93-8.27C133.41,166.53,128.51,174.24,128.37,175.08z"/>
	<path id="XMLID_192_" class="st1" d="M140.01,303.68c-1.12-3.51-6.31-11.22-8.41-9.4c0.28,0.56,2.1,1.68,2.66,2.24
		c4.21,4.07,4.63,7.99,5.33,9.12C140.57,304.94,140.43,304.94,140.01,303.68z"/>
	<path id="XMLID_193_" class="st1" d="M66.1,303.82c-0.84,0.84-1.82,5.47-2.38,7.01c-1.4,3.79-3.09,0.28-3.79,0.28
		c-0.7,0.14-0.42,0.84,0,1.26c0.7,0.7,2.24,1.54,3.51,0.84s2.24-4.91,2.8-6.73C66.8,304.24,67.22,304.1,66.1,303.82z"/>
	<path id="XMLID_194_" class="st1" d="M20.24,213.37c0.14-0.28,1.96-4.07,1.54-4.77c-0.98-0.14-0.42-0.42-0.98,0.56l-0.98,2.94
		c-1.54-0.14-5.75-2.1-7.85-2.8l-1.12-0.14c-0.28,1.12-0.7,0.56,1.82,1.54L20.24,213.37z"/>
	<path id="XMLID_195_" class="st0" d="M79.42,316.44c1.82,0.28,3.93,0.56,4.21-1.26c0.42-1.96-1.82-2.66-3.65-2.66L79.42,316.44z"/>
	<path id="XMLID_196_" class="st0" d="M37.91,292.74c0.7,0.7,2.94,3.09,4.35,1.54c1.54-1.68-1.26-3.65-2.1-4.07
		C39.32,290.78,38.33,291.76,37.91,292.74z"/>
	<path id="XMLID_197_" class="st0" d="M41.56,170.04c0.14,0.7,1.26,2.38,1.96,2.8c0.98-0.56,3.65-2.1,2.52-3.79
		C44.79,167.37,42.54,169.19,41.56,170.04z"/>
	<path id="XMLID_198_" class="st0" d="M167.91,227.67c-0.28,1.68,0,4.35,2.1,4.07c1.82-0.28,1.68-2.94,1.12-4.49L167.91,227.67z"/>
	<path id="XMLID_199_" class="st0" d="M34.13,176.35c0.42,0.56,1.68,2.1,2.24,2.38c4.49-2.8,1.96-6.31-1.26-3.51
		C34.55,175.79,34.41,175.65,34.13,176.35z"/>
	<path id="XMLID_200_" class="st1" d="M123.18,305.78c-0.42-0.98-1.82-4.63-2.52-4.91c-1.12,0.42-0.42,1.12,0.14,2.24
		c0.42,0.98,0.7,1.68,1.12,2.52c0.56,1.12,1.68,4.07,2.38,4.91C125.7,310.13,124.72,309.15,123.18,305.78z"/>
	<path id="XMLID_201_" class="st1" d="M93.03,163.87h0.98l0.56-7.85c0.28-2.94,0.28-2.1-0.42-2.52c-0.7,0.28-0.42-0.7-0.7,2.24
		c0,0.98-0.14,1.82-0.14,2.8C93.31,160.22,93.03,162.46,93.03,163.87z"/>
	<path id="XMLID_202_" class="st1" d="M156.13,206.92c0.56,1.26,1.82,0.14,4.91-1.26l4.35-2.1c0.42-0.28,0.14,0,0.42-0.42
		c-0.42-0.84,0.14-0.84-2.38,0.28c-0.98,0.42-1.54,0.7-2.52,1.12C159.92,204.95,156.69,206.22,156.13,206.92z"/>
	<path id="XMLID_203_" class="st1" d="M98.92,317.56c0.42-0.7-0.28-6.31-0.42-8.13c-0.14-2.8,0-2.1-0.98-2.1l-0.14,2.66
		c0.14,1.68,0.28,6.87,0.7,7.71L98.92,317.56z"/>
	<path id="XMLID_204_" class="st1" d="M167.49,243.24c-1.4-0.14-4.07-0.42-5.33-0.28v0.84l7.85,0.56c3.09,0.28,2.1,0.28,2.38-0.42
		c-0.28-0.7,0.7-0.42-2.38-0.7C169.17,243.38,168.33,243.24,167.49,243.24z"/>
	<path id="XMLID_205_" class="st0" d="M80.12,311.39c2.1,0.84,3.65,0,3.37-2.24c-0.98-0.84-1.54-0.98-2.94-0.98L80.12,311.39z"/>
	<path id="XMLID_206_" class="st0" d="M127.94,303.96c0.7-0.14,2.52-1.26,2.94-1.68c-0.56-0.42-2.38-1.82-3.23-2.1L127.94,303.96z"
		/>
	<path id="XMLID_207_" class="st0" d="M70.45,311.39l3.23,0.84l-0.7-3.93C72.41,308.59,70.59,310.69,70.45,311.39z"/>
	<path id="XMLID_208_" class="st0" d="M123.18,166.81c0.14,0.14,0.14,0.14,0.42,0.28l2.52,1.12l0.14-3.79L123.18,166.81z"/>
	<rect id="XMLID_209_" x="8.18" y="330.32" class="st2" width="499.52" height="3.79"/>
	<polygon id="XMLID_210_" class="st7" points="8.18,334.11 8.18,334.39 508.12,334.39 508.12,329.9 7.76,329.9 7.76,334.39 
		8.18,334.39 8.18,334.11 8.6,334.11 8.6,330.75 507.28,330.75 507.28,333.69 8.18,333.69 8.18,334.11 8.6,334.11 	"/>
	<rect id="XMLID_211_" x="8.18" y="134.56" class="st2" width="499.52" height="3.79"/>
	<polygon id="XMLID_212_" class="st7" points="8.18,138.34 8.18,138.62 508.12,138.62 508.12,134.14 7.76,134.14 7.76,138.62 
		8.18,138.62 8.18,138.34 8.6,138.34 8.6,134.98 507.28,134.98 507.28,137.92 8.18,137.92 8.18,138.34 8.6,138.34 	"/>
	<path id="XMLID_213_" class="st0" d="M368.03,365.94c2.66-1.4,3.23-7.29,7.85-9.96c0.28,1.96,0,3.65-0.56,5.33
		c-1.96,6.59-1.12,3.51-0.56,4.77c2.8-1.68,3.23-7.29,8.41-9.82c-0.42,4.35-2.38,7.57-2.52,10.1c2.24,0.28,1.26,0.84,2.8-1.68
		c2.1-3.37,0.98-2.52,1.26-5.05c0.14-1.12,0.28-0.98,0.14-2.38c-0.42-5.75-6.03,1.54-7.43,3.09c0.84-9.12-4.21-4.77-5.75-0.98
		c0-0.14-0.14-0.42-0.14-0.56c0-0.14-0.14-0.42-0.14-0.56c-0.14-0.14-0.14-0.28-0.28-0.56c-0.42-1.82,0.42-0.56-0.56-2.52
		c-2.66,0.42-1.82-0.28-2.94,1.96l-0.28-0.42l-0.84-0.98c-0.7-0.56-0.28-0.28-1.26-0.7c-1.96,1.12-3.79,4.07-4.77,5.75
		c0.56-1.82,1.68-3.37,1.26-5.33c-3.23,0-2.1,2.24-2.66,4.21c-0.56,2.38-2.1,4.07-0.7,6.31c2.1-0.56,0.84,0.7,2.24-2.38
		c2.24-5.47,2.8-4.49,4.07-7.15l0.56,3.09c2.52-0.98,0,0.28,1.96-1.54c0.14-0.14,0.98-1.12,1.12-1.26c0.98,1.26,0.84-1.26,0.7,2.52
		C369.15,361.74,366.77,363.84,368.03,365.94z"/>
	<path id="XMLID_214_" class="st0" d="M181.8,363.28c1.12-1.54,1.68-3.51,2.66-5.89c2.24-0.28,2.38-0.14,4.49,0.14
		c2.8,0.28,1.82,0.98,2.94-0.98c-1.96-1.68-3.23-0.56-6.87-0.98l1.4-5.05c3.65,0,6.59,2.1,8.41-0.28
		c-0.7-0.42-13.74-3.23-15.57-1.96c-1.26,0.84-1.68,3.51,0.14,5.75c-0.28-5.05,0.7-4.49,5.33-4.07c0.7,4.07-1.82,6.17-1.96,6.87
		c-0.7,1.54-0.14,0.7-0.56,2.66c-1.54,7.29-6.17,1.68-4.49,6.73c7.01-3.65,13.46,2.94,14.3-2.24c-1.26-0.7,0.42-0.28-2.1-0.28
		L181.8,363.28z"/>
	<path id="XMLID_215_" class="st0" d="M155.15,377.86h2.8c4.07-2.66,5.05-3.37,7.43-9.96c0.84-2.38,1.4-4.21,2.1-6.59
		c2.1-7.57,0.7-5.61-0.7-6.31c-0.7,4.07-4.07,9.4-7.29,10.38c0-5.05,2.52-7.43,5.05-8.69l1.26-0.7c-5.75-2.52-8.41,6.31-7.85,9.68
		c3.79,1.26,5.75-1.26,7.57-4.49c-0.56,3.79-2.38,8.55-4.49,11.5c-3.37,5.19-4.91,3.79-10.24,1.68
		C151.64,376.88,153.05,376.32,155.15,377.86z"/>
	<path id="XMLID_216_" class="st0" d="M402.53,377.86h3.09c3.51-2.52,4.63-2.8,7.15-9.82c0.98-2.8,4.21-10.38,2.24-13.04
		c-1.96,1.96-3.23,8.98-8.13,10.24c-0.14-3.37,1.26-6.31,3.79-7.99c1.54-0.98-0.42,0.28,1.12-0.7c0.7-0.42,0.56,0.56,0.84-0.56
		c0.14-0.28,0.28-0.14,0.42-0.28c-3.37-1.4-4.91,0.56-6.59,3.51c-3.51,6.17,0,10.8,6.31,1.82c-0.28,3.79-2.52,8.69-4.35,11.5
		c-2.94,4.77-5.33,3.65-10.38,1.54C399.02,376.6,400.42,376.32,402.53,377.86z"/>
	<path id="XMLID_217_" class="st0" d="M120.93,366.23c2.94-3.37,3.93-8.55,7.71-10.1c0.14,2.24,0,3.65-0.7,5.61
		c-0.14,0.42-0.84,2.38-0.84,2.38c-0.28,1.96-0.56,0.98,0.7,1.96c2.8-2.24,2.66-7.43,8.27-10.1c-0.42,3.93-2.52,7.71-2.52,10.1
		c2.1,0.14,1.68,0,2.66-1.82c1.96-2.94,1.96-2.24,1.54-3.23c-1.12-2.38,0-0.7,0-3.51l-0.56-2.24c-2.24-2.1-5.75,3.09-7.01,4.49
		c0.28-11.08-5.75-1.96-6.73-0.14c0.28-2.24,0.7-1.96,0.14-4.49c-2.38-0.42-0.98-0.42-2.52,0c-0.42,1.82-0.28-0.14,0.14,1.12
		c0.42,1.26,1.12,0.98,0.28,4.35C119.67,367.49,119.53,364.68,120.93,366.23z"/>
	<path id="XMLID_218_" class="st0" d="M455.82,365.94c1.96-0.98,0.98-0.56,1.96-2.66c1.54-3.23,0.7-0.28,0.14-2.1
		c-0.42-1.96,0.56-4.35,1.26-6.45c3.51-9.54,4.07-7.71,7.43-9.82l-3.51-1.26c-1.26,2.24-1.96,2.94-3.23,5.33
		c-1.96,3.93-4.77,14.3-10.8,15.57c0.7-2.66,2.66-6.03,4.91-7.57c1.54-0.98-0.42,0.28,1.26-0.7l1.26-0.7
		c-5.89-2.24-8.98,7.15-9.26,9.12l1.54,1.4c2.52-0.98,5.19-3.79,6.73-5.75C455.54,364.4,453.85,363.14,455.82,365.94z"/>
	<path id="XMLID_219_" class="st0" d="M47.59,350.52c1.4-0.14,2.8-0.14,4.07-0.28c3.79-0.42,2.1,0,2.52-1.82
		c-2.24-1.54-1.96-0.28-4.91,0c-4.49,0.42-9.82,1.26-13.74,2.94c0,3.79,0.56,3.51,2.1,5.61c0-3.23-3.37-5.05,7.85-6.17
		c-2.94,12.06-7.43,11.5-4.91,15.71c2.38-0.28,1.68-0.56,2.52-3.51C43.94,359.49,45.91,353.04,47.59,350.52z"/>
	<path id="XMLID_220_" class="st0" d="M282.76,351.5c-0.28,2.94,0,3.79,2.38,5.19l-0.84-3.93c2.38-1.12,5.33-1.82,8.41-2.1
		c-2.52,10.66-5.75,10.24-5.75,13.46c0.14,3.23-0.28,0.98,0.98,2.1c1.96-0.14,1.26-0.28,1.96-2.94c0.98-3.65,2.94-9.96,4.77-12.9
		c1.26-0.14,2.8-0.14,4.07-0.28c3.79-0.42,2.1,0,2.52-1.82C299.59,347.01,285.29,349.82,282.76,351.5z"/>
	<path id="XMLID_221_" class="st0" d="M345.03,354.59c5.19-11.64,3.65-6.87,7.15-8.83l-3.65-1.26c-5.19,3.93-2.24,8.98-8.13,11.22
		c2.1,1.68,0.98-0.42,1.68,1.96l-3.93,12.34c-0.42,2.8,0,1.96,1.54,2.52l4.21-15.85l3.65-0.98
		C346.43,355.15,346.15,355.57,345.03,354.59z"/>
	<path id="XMLID_222_" class="st0" d="M427.35,357.25c-1.4-2.66-0.98-3.09,0.7-5.33c1.12-1.82,1.96-2.66,5.05-2.24
		c0.28,4.21-0.98,7.29-2.38,10.66c-3.23,7.01-4.63,3.51-7.01,5.19c5.19,1.96,6.45,0.42,8.55-4.07c1.68-3.65,3.23-7.29,2.8-11.78
		c-2.1-0.98-2.94-1.12-5.89-1.12c-1.96,2.38-4.49,3.37-4.49,7.57C425.95,356.83,425.24,356.55,427.35,357.25z"/>
	<path id="XMLID_223_" class="st0" d="M97.65,354.59c4.91-11.36,3.23-6.59,7.29-8.83l-3.65-1.26c-1.96,1.4-2.8,3.37-3.93,6.03
		c-1.68,3.79-0.28,3.65-4.21,5.05l0.7,0.56c2.66,2.8-5.61,12.34-2.1,16.41c0.84-0.98,0.28,0.14,0.84-1.26l1.96-9.12
		c0.42-0.98,1.26-4.21,1.68-4.77c1.54-2.66,1.26-0.42,3.93-1.82L97.65,354.59z"/>
	<path id="XMLID_224_" class="st0" d="M152.49,366.08c3.51,0,4.07-6.59,3.79-8.98c-0.56-5.75-6.17,1.82-7.01,2.66
		c1.12-5.61,0.28-5.75-3.23-3.09c1.96,0.98-2.1-0.7,0.7,0.14l-1.4,9.12c3.09-0.28,2.52-2.38,4.49-4.77c1.4-1.96,2.66-3.51,4.35-4.49
		c0.14,0.28,0.28,0.14,0.28,1.26C154.59,360.76,151.93,363.56,152.49,366.08z"/>
	<path id="XMLID_225_" class="st0" d="M403.65,361.6l-0.14-4.49c-0.7-5.33-6.03,1.4-7.01,2.8c0.42-3.93,1.54-7.29-3.23-3.09
		l1.82,0.42l-2.66,8.69c3.09-0.28,2.8-2.24,4.49-4.77c1.68-2.1,2.8-3.79,4.77-4.63c-0.14,2.8-2.66,8.55-1.82,9.82
		C402.11,365.52,403.65,361.74,403.65,361.6z"/>
	<path id="XMLID_226_" class="st0" d="M439.69,356.83c-0.28-1.26,0.7,0-0.84-1.68c-2.52,0.28-0.7-0.28-2.8,1.54l1.82,0.42
		l-2.52,8.55c3.93,0,2.8-5.89,9.26-9.4c-0.14,3.37-2.38,8.13-1.96,9.82c1.96,0.14,0.98,0.28,2.24-1.82c0.7-0.98,1.4-2.1,1.54-2.66
		v-4.49c-0.28-2.52-3.51-3.09-6.03,1.96C439.27,357.53,439.97,358.37,439.69,356.83z"/>
	<path id="XMLID_227_" class="st0" d="M75.78,359.91c0.56-2.38,1.26-2.66,0.42-4.77c-3.23-0.28-1.12-0.28-3.37,1.54l1.96,0.28
		l-2.52,8.55c3.09,0.28,0.84,0.56,4.49-4.49c1.12-1.68,3.09-3.79,4.77-4.77c-0.42,6.87-2.94,7.71-1.96,9.68
		c1.96,0.42,3.23-3.23,3.79-4.77c0.14-1.12-0.56,1.82-0.28-1.96C83.49,350.24,76.76,358.37,75.78,359.91z"/>
	<path id="XMLID_230_" class="st0" d="M227.79,364.96c0.56-2.52,1.54-3.79,2.66-5.61c1.54-2.24,1.96-2.66,5.05-3.09
		C234.8,359.49,230.46,363.84,227.79,364.96z M234.38,366.08c2.24-1.12,2.52-3.93,2.52-4.21c-0.28-1.4-1.26,2.24-0.28-2.24
		c0.56-2.1,0.56-0.7,0.7-3.09c-0.84-0.56-3.65-1.4-4.77-1.26c-1.68,0.28-7.01,6.45-6.03,10.8c3.79,0.56,5.47-3.09,7.85-5.19
		C233.68,365.24,232.84,363.7,234.38,366.08z"/>
	<path id="XMLID_231_" class="st0" d="M321.19,355.57l0.28,1.26c0.56,3.79-1.96,6.03-2.1,8.83c2.94,0.42,0.84,0.84,4.49-4.35
		c1.26-1.82,2.38-3.51,4.77-4.91c-0.14,5.19-0.84,4.77-1.96,7.85c-0.84,2.66,0.7,2.66,1.96,0.7c1.54-2.38,1.26-3.09,1.54-6.03
		c0.7-7.85-5.33-1.12-7.15,1.26C323.71,357.67,325.26,354.31,321.19,355.57z"/>
	<path id="XMLID_234_" class="st0" d="M61.19,365.1c0-2.66,0.84-3.65,2.24-5.61c1.68-2.24,1.68-2.66,5.19-3.23
		C67.64,359.91,63.86,363.7,61.19,365.1z M67.5,365.94c1.96-0.7,0.56,1.54,1.96-2.1c0.28-0.42,0.28-0.84,0.28-1.26
		c0.56-6.59,0.42-2.1,1.12-6.31l-2.38-0.84c-0.98-0.28-0.7-0.28-2.1-0.56c-2.8,1.82-7.29,6.59-6.45,11.08
		c3.93,0.56,5.33-2.94,7.71-5.05C67.08,363.56,66.24,363.98,67.5,365.94z"/>
	<path id="XMLID_235_" class="st0" d="M466.89,364.96c0.56-2.94,1.4-3.79,2.8-5.89c2.94-3.93,3.51-1.82,4.21-3.09
		c0-0.28,0.28-0.28,0.56-0.28c-5.33-1.82-9.54,7.01-8.69,10.52c4.07,0.42,5.19-3.37,7.71-5.33c-0.84,5.75-1.12,4.07,0.28,5.47
		c1.4-0.98,2.38-3.37,2.1-4.63c-0.7-4.07,1.96-2.66,0.14-5.75c-2.38,0.84-0.42-0.28-1.96,2.38
		C472.36,360.48,469.7,363.7,466.89,364.96z"/>
	<path id="XMLID_236_" class="st0" d="M266.22,359.63c0.7-2.94,1.54-5.75-1.96-3.93c1.68,2.38-1.54,7.29-1.82,10.1
		c2.8-0.28,1.4,0.42,2.8-2.24c1.54-2.8,3.37-6.17,6.31-7.15c0,3.65-2.38,7.01-1.96,9.82c3.23-0.7,3.37-4.91,3.51-7.29
		c0.42-2.66,0.14-2.24-0.42-3.37C270.14,354.73,270.7,355.57,266.22,359.63z"/>
	<path id="XMLID_237_" class="st0" d="M202.41,356.41c-0.84,3.09-2.1,3.23-3.23,5.75c1.26-0.42,0.56,0,1.68-0.84
		c0.7-0.42,0.28-0.28,0.7-0.7c-0.7,3.23-1.68,4.35,0.56,5.89l2.52-4.63c-2.8,1.54-0.7,0.28-1.54-0.28c0.7-3.51,1.82-6.87,3.23-9.96
		c0.7-1.4,1.26-2.8,2.1-4.07c1.12-1.54,1.96-1.54,3.09-1.96l-1.68-1.54C205.21,345.89,205.07,352.06,202.41,356.41z"/>
	<path id="XMLID_238_" class="st0" d="M208.16,364.96c0-3.79,1.68-6.31,2.66-9.4c-2.94,0.42-2.94,0.98-3.51,3.93
		c-0.56,2.52-0.7,3.65-0.7,6.31c3.51,0.56,5.05-2.38,6.87-4.91l-0.14,4.63l0.28,0.42c2.8-1.68,1.26-2.52,1.68-4.77
		c0.42-1.68,1.68-3.93,2.24-5.61c-3.37,0.14-0.84-1.26-5.05,4.77C211.38,362.16,210.26,364.12,208.16,364.96z"/>
	<path id="XMLID_241_" class="st0" d="M101.72,365.38c-0.42-2.24-0.14-4.07,0.98-6.31s2.38-2.24,5.05-2.8
		C107.47,360.9,106.21,365.24,101.72,365.38z M99.9,365.24c5.19,1.82,6.87,0.98,8.69-4.07c2.24-6.59-0.7-5.89-5.61-6.03
		C101.44,357.81,99.06,361.18,99.9,365.24z"/>
	<path id="XMLID_244_" class="st0" d="M349.1,365.38c-0.42-2.24-0.14-4.21,0.84-6.31c1.26-2.38,2.24-2.24,5.05-2.94
		C354.71,361.32,353.44,365.1,349.1,365.38z M347.27,365.24c9.82,4.07,9.4-8.41,8.98-9.82c-0.7-0.14-5.05-0.42-5.89-0.42
		C348.82,357.67,346.43,361.04,347.27,365.24z"/>
	<path id="XMLID_245_" class="st0" d="M254.58,365.94c-1.96-3.37-0.7-9.82,5.19-9.4c-0.42,4.77-1.4,7.29-4.91,8.98c0,0,0,2.1,3.09,0
		c0.84-0.56,1.54-1.68,1.96-2.52c3.37-6.31,1.68-8.41-4.63-7.71C253.74,357.81,248.55,364.54,254.58,365.94z"/>
	<path id="XMLID_246_" class="st0" d="M243.92,354.45c1.26-2.1,0.84-2.94,2.52-4.63c0.14-0.14,0.7-0.28,0.7-0.7
		c0.14-0.28,0.28-0.28,0.42-0.28c-5.89-1.26-1.96,4.91-7.71,6.73c0.14,0.14,0.42,0.28,0.42,0.42l0.42,0.42
		c1.54,2.66-2.52,6.03-0.7,9.54c2.38,0.7,3.51-0.84,4.35-2.8l-3.23,1.54l2.24-8.27l3.51-0.56
		C245.18,354.87,245.32,355.85,243.92,354.45z"/>
	<path id="XMLID_247_" class="st0" d="M54.6,358.65c0.7-2.66,1.12-1.26,0.42-3.37c-3.79,1.26-1.96,1.68-2.66,4.35
		c-0.28,0.98-0.98,2.38-1.12,3.37c-0.7,3.37-0.14,2.1,0.56,3.09c3.09-1.26,0.42-2.38,6.17-9.4c1.12,1.96-0.28,0,0.28,1.68
		c0.42,1.54-0.56,0.42,0.98,1.12c1.26-1.82,0.98-2.1,0.7-4.35c-1.96,0-2.1,0-3.23,1.26c-0.28,0.28-0.7,0.98-0.7,1.12
		C55.02,358.51,55.72,357.81,54.6,358.65z"/>
	<path id="XMLID_248_" class="st0" d="M111.26,365.94c1.96-0.56,0.98,0.28,2.1-2.52c1.68-4.49,1.96-3.79,4.21-7.01l0.28,1.82
		c0.56,1.68-0.28,0.42,0.98,1.12c1.12-1.82,0.84-2.1,0.84-4.35c-3.65-0.14-4.91,3.09-6.45,5.61l1.4-5.33
		c-3.51-0.14-2.1,2.1-2.66,4.07c-0.42,1.54-1.54,3.37-1.4,4.91C110.84,366.08,110.7,365.1,111.26,365.94z"/>
	<path id="XMLID_249_" class="st0" d="M299.03,365.94c2.8-0.98,0.28,0.42,3.23-5.05c1.12-2.1,1.96-2.8,2.94-4.35
		c0.7,1.4-0.14,1.54,1.26,3.09c0.98-1.4,1.4-2.38,0.7-4.21c-2.66-0.42-3.79,1.26-6.03,5.33l1.4-5.33c-3.51,0.14-2.1,2.1-2.66,4.21
		C299.03,362.58,297.49,363.56,299.03,365.94z"/>
	<path id="XMLID_250_" class="st0" d="M219.94,365.24c-0.56-4.07,0.84-7.43,3.65-8.98l0.28,0.42l0.98,3.09
		c0.56-0.42,2.1,0,0.98-4.35l-4.07-0.28c-1.82,1.54-2.94,3.79-3.51,6.45c-1.12,4.35,0.84,4.35,4.63,4.63
		c0.98-1.12,1.54-1.82,2.38-3.51C222.88,363.98,224.01,365.52,219.94,365.24z"/>
	<path id="XMLID_251_" class="st0" d="M89.38,363.98c0.7-4.77-2.8-5.61,0.14-8.27l0.56,0.84l0.28,0.42
		c0.14,0.42,0.42,0.98,0.42,1.12c1.68-1.4,1.54-0.56,1.12-3.37c-2.1,0.98-2.94,0.56-5.33,1.82c-0.28,3.65,1.26,3.79,1.4,7.15
		c-2.24,2.1-2.38,0.42-5.05,1.96C86.44,366.79,87,366.08,89.38,363.98z"/>
	<path id="XMLID_252_" class="st0" d="M315.86,356.41c-0.56,1.82-1.4,2.66-2.24,4.07c-0.7,1.12-0.7,0.84-1.54,1.68
		c-1.4,1.54-0.7,0.42-1.26,1.82c1.96-0.84,3.37-2.66,4.21-3.65c-0.56,2.24-1.4,3.65-0.42,5.61c2.38-0.56,0.28,0.98,2.94-4.07
		l-0.98-0.42c0.7-2.38,1.4-2.94,1.26-5.61C316.28,355.99,316.98,355.71,315.86,356.41z"/>
	<path id="XMLID_253_" class="st0" d="M199.18,362.16c-1.54,0.56,0-0.28-1.26,0.7c-1.54,1.12,0,1.12-2.94,2.24
		c-0.14-3.37,3.23-7.15,4.77-8.55l2.52-0.14l-2.52-1.54c-8.13,5.33-7.85,14.58-3.23,10.38
		C197.64,364.26,198.62,363.42,199.18,362.16z"/>
	<path id="XMLID_254_" class="st0" d="M310.81,363.98l-2.24,0.98c0-3.65,3.23-6.59,4.91-8.41l2.38-0.14l-2.52-1.54
		c-2.94,2.1-6.87,6.03-6.45,11.08c0.84,0.14,1.82,0.28,2.66-0.14C311.93,364.68,310.53,365.52,310.81,363.98z"/>
	<path id="XMLID_255_" class="st0" d="M336.62,363.98c0.7-5.19-3.37-5.75,0.7-8.69c-2.66,0.28-2.1,0.28-3.79,1.68
		c0.42,5.75,5.33,7.43-3.37,8.13c1.68,1.26-1.68,0.14,1.96,0.98C333.95,366.65,335.21,365.38,336.62,363.98z"/>
	<path id="XMLID_256_" class="st0" d="M388.92,364.82c0.7-0.98,1.26-1.96,1.26-2.66c0.14-0.7,0.14-2.1,0.7-3.79
		c0.98-4.21-1.68-3.79-3.09-1.26l1.54-0.7c-0.56,3.79-1.68,6.31-3.09,9.26C388.08,366.37,387.8,366.51,388.92,364.82z"/>
	<path id="XMLID_257_" class="st0" d="M143.51,356.13c-1.26-2.24-2.38-0.14-2.8,0.42l0.56,0.98c0.14-0.14,0.42,0.28,0.56,0.28
		l-2.1,8.41c1.12-0.28,1.54-0.14,2.94-2.94c0.98-2.24-0.14-0.28,0.56-3.23C143.23,358.65,144.21,357.11,143.51,356.13z"/>
	<path id="XMLID_258_" class="st0" d="M249.11,361.6c0.28-1.82,2.94-7.43-1.12-5.89c0.14,0.28,0,0.56,0,0.7
		c0.14,1.82,0.56,1.26-0.56,4.49c-0.7,1.96-1.4,3.23-1.96,5.19C248.69,365.8,248.83,364.26,249.11,361.6z"/>
	<path id="XMLID_259_" class="st0" d="M462.27,355.43c0.98,2.66-1.12,8.13-2.38,10.24c3.23,0.7,3.23-1.54,3.51-3.79
		c0.14-1.26,1.26-3.23,1.12-4.77c-0.14-1.54,0-0.42-0.7-1.54L462.27,355.43z"/>
	<path id="XMLID_260_" class="st0" d="M463.25,352.9c4.35,0,2.66-0.14,3.51-1.4c-0.56-0.28,0.84-1.54-1.82-0.42
		C463.95,351.36,463.67,352.2,463.25,352.9z"/>
	<path id="XMLID_261_" class="st0" d="M389.62,353.04c4.07-0.28,2.94-0.56,3.51-1.54C393.13,351.36,392.01,348.56,389.62,353.04z"/>
	<path id="XMLID_262_" class="st0" d="M142.67,352.62c2.24,0.7,2.24,0,3.23-1.26c-0.14-0.14,0.56-1.26-1.82-0.56
		C142.39,351.36,142.81,352.2,142.67,352.62z"/>
	<path id="XMLID_263_" class="st0" d="M249.11,352.9c2.38,0.28,2.38-0.14,3.23-1.4c-0.14-0.14-1.12-2.1-3.09,0.56
		C248.83,352.9,249.39,351.92,249.11,352.9z"/>
	<path id="XMLID_264_" class="st0" d="M337.88,358.09c0.7-1.26,1.54,0.56,1.12-3.51C337.04,355.71,337.04,356.69,337.88,358.09z"/>
</g>
</svg>
